<?xml version="1.0" encoding="iso-8859-1"?>
<!-- Generator: Adobe Illustrator 16.0.0, SVG Export Plug-In . SVG Version: 6.00 Build 0)  -->
<!DOCTYPE svg PUBLIC "-//W3C//DTD SVG 1.1//EN" "http://www.w3.org/Graphics/SVG/1.1/DTD/svg11.dtd">
<svg version="1.1" id="Capa_1" xmlns="http://www.w3.org/2000/svg" xmlns:xlink="http://www.w3.org/1999/xlink" x="0px" y="0px"
	 width="607.183px" height="607.183px" viewBox="0 0 607.183 607.183" style="enable-background:new 0 0 607.183 607.183;"
	 xml:space="preserve">
<g>
	<g>
		<path d="M530.885,606.683c32.059,0,58.14-26.082,58.14-58.14V58.64c0-32.058-26.081-58.14-58.14-58.14H76.297
			c-32.058,0-58.14,26.082-58.14,58.14v489.902c0,32.059,26.082,58.14,58.14,58.14L530.885,606.683L530.885,606.683z
			 M60.998,548.543V58.64c0-8.45,6.85-15.3,15.3-15.3h454.587c8.45,0,15.3,6.85,15.3,15.3v489.902c0,8.45-6.85,15.3-15.3,15.3
			H76.297C67.848,563.843,60.998,556.992,60.998,548.543z"/>
		<path d="M530.885,607.183l-454.588-0.001c-32.334,0-58.64-26.306-58.64-58.64V58.64C17.658,26.306,43.963,0,76.297,0h454.588
			c32.334,0,58.64,26.306,58.64,58.64v489.903C589.525,580.877,563.219,607.183,530.885,607.183z M76.297,1
			c-31.783,0-57.64,25.857-57.64,57.64v489.902c0,31.782,25.857,57.64,57.64,57.64l454.588,0.001c31.782,0,57.64-25.857,57.64-57.64
			V58.64c0-31.783-25.857-57.64-57.64-57.64H76.297z M530.884,564.342H76.297c-4.22,0-8.188-1.643-11.172-4.627
			c-2.984-2.984-4.628-6.952-4.628-11.172V58.64c0-8.712,7.088-15.8,15.8-15.8h454.587c8.712,0,15.8,7.088,15.8,15.8v489.902
			C546.684,557.254,539.596,564.342,530.884,564.342z M76.297,43.84c-8.161,0-14.8,6.639-14.8,14.8v489.903
			c0,3.953,1.54,7.669,4.335,10.465c2.795,2.795,6.512,4.334,10.465,4.334h454.587c8.161,0,14.8-6.64,14.8-14.8V58.64
			c0-8.161-6.639-14.8-14.8-14.8H76.297z"/>
	</g>
	<g>
		<path d="M198.562,286.244h210.058c20.247,0,36.72-16.473,36.72-36.72V109.792c0-20.248-16.473-36.72-36.72-36.72H198.562
			c-20.248,0-36.72,16.473-36.72,36.72v139.731C161.842,269.771,178.315,286.244,198.562,286.244z M204.682,115.912H402.5v127.492
			H204.682V115.912z"/>
		<path d="M408.621,286.744H198.562c-20.523,0-37.22-16.697-37.22-37.22V109.792c0-20.523,16.697-37.22,37.22-37.22h210.058
			c20.523,0,37.22,16.697,37.22,37.22v139.731C445.84,270.047,429.144,286.744,408.621,286.744z M198.562,73.572
			c-19.972,0-36.22,16.249-36.22,36.22v139.731c0,19.972,16.249,36.22,36.22,36.22h210.058c19.972,0,36.22-16.249,36.22-36.22
			V109.792c0-19.972-16.248-36.22-36.22-36.22H198.562z M403,243.904H204.182V115.412H403V243.904z M205.182,242.904H402V116.412
			H205.182V242.904z"/>
	</g>
	<g>
		<path d="M198.562,534.11h210.058c20.247,0,36.72-16.473,36.72-36.72V357.659c0-20.247-16.473-36.72-36.72-36.72H198.562
			c-20.248,0-36.72,16.473-36.72,36.72v139.731C161.842,517.638,178.315,534.11,198.562,534.11z M204.682,363.779H402.5v127.491
			H204.682V363.779z"/>
		<path d="M408.621,534.61H198.562c-20.523,0-37.22-16.696-37.22-37.22V357.659c0-20.523,16.697-37.22,37.22-37.22h210.058
			c20.523,0,37.22,16.696,37.22,37.22v139.731C445.84,517.914,429.144,534.61,408.621,534.61z M198.562,321.439
			c-19.972,0-36.22,16.248-36.22,36.22v139.731c0,19.972,16.249,36.22,36.22,36.22h210.058c19.972,0,36.22-16.248,36.22-36.22
			V357.659c0-19.972-16.248-36.22-36.22-36.22H198.562z M403,491.771H204.182V363.279H403V491.771z M205.182,490.771H402V364.279
			H205.182V490.771z"/>
	</g>
	<g>
		<path d="M102.588,121.862h14.57c8.45,0,15.3-6.85,15.3-15.3v-14.57c0-8.45-6.85-15.3-15.3-15.3h-14.57
			c-8.45,0-15.3,6.85-15.3,15.3v14.57C87.288,115.012,94.138,121.862,102.588,121.862z"/>
		<path d="M117.158,122.362h-14.57c-8.712,0-15.8-7.088-15.8-15.8v-14.57c0-8.712,7.088-15.8,15.8-15.8h14.57
			c8.712,0,15.8,7.088,15.8,15.8v14.57C132.958,115.274,125.871,122.362,117.158,122.362z M102.588,77.191
			c-8.161,0-14.8,6.639-14.8,14.8v14.57c0,8.161,6.639,14.8,14.8,14.8h14.57c8.161,0,14.8-6.639,14.8-14.8v-14.57
			c0-8.161-6.639-14.8-14.8-14.8H102.588z"/>
	</g>
	<g>
		<path d="M102.588,224.019h14.57c8.45,0,15.3-6.85,15.3-15.3v-14.571c0-8.45-6.85-15.3-15.3-15.3h-14.57
			c-8.45,0-15.3,6.85-15.3,15.3v14.571C87.288,217.169,94.138,224.019,102.588,224.019z"/>
		<path d="M117.158,224.519h-14.57c-8.712,0-15.8-7.088-15.8-15.8v-14.571c0-8.712,7.088-15.8,15.8-15.8h14.57
			c8.712,0,15.8,7.088,15.8,15.8v14.571C132.958,217.431,125.871,224.519,117.158,224.519z M102.588,179.349
			c-8.161,0-14.8,6.639-14.8,14.8v14.571c0,8.161,6.639,14.8,14.8,14.8h14.57c8.161,0,14.8-6.639,14.8-14.8v-14.571
			c0-8.161-6.639-14.8-14.8-14.8H102.588z"/>
	</g>
	<g>
		<path d="M102.588,326.177h14.57c8.45,0,15.3-6.851,15.3-15.3v-14.57c0-8.45-6.85-15.3-15.3-15.3h-14.57
			c-8.45,0-15.3,6.85-15.3,15.3v14.57C87.288,319.326,94.138,326.177,102.588,326.177z"/>
		<path d="M117.158,326.677h-14.57c-8.712,0-15.8-7.088-15.8-15.8v-14.57c0-8.712,7.088-15.8,15.8-15.8h14.57
			c8.712,0,15.8,7.088,15.8,15.8v14.57C132.958,319.589,125.871,326.677,117.158,326.677z M102.588,281.507
			c-8.161,0-14.8,6.639-14.8,14.8v14.57c0,8.16,6.639,14.8,14.8,14.8h14.57c8.161,0,14.8-6.64,14.8-14.8v-14.57
			c0-8.161-6.639-14.8-14.8-14.8H102.588z"/>
	</g>
	<g>
		<path d="M102.588,428.333h14.57c8.45,0,15.3-6.85,15.3-15.3v-14.57c0-8.45-6.85-15.3-15.3-15.3h-14.57
			c-8.45,0-15.3,6.85-15.3,15.3v14.57C87.288,421.484,94.138,428.333,102.588,428.333z"/>
		<path d="M117.158,428.833h-14.57c-8.712,0-15.8-7.088-15.8-15.8v-14.57c0-8.712,7.088-15.8,15.8-15.8h14.57
			c8.712,0,15.8,7.088,15.8,15.8v14.57C132.958,421.745,125.871,428.833,117.158,428.833z M102.588,383.663
			c-8.161,0-14.8,6.64-14.8,14.8v14.57c0,8.16,6.639,14.8,14.8,14.8h14.57c8.161,0,14.8-6.64,14.8-14.8v-14.57
			c0-8.16-6.639-14.8-14.8-14.8H102.588z"/>
	</g>
	<g>
		<path d="M102.588,530.491h14.57c8.45,0,15.3-6.851,15.3-15.3v-14.57c0-8.45-6.85-15.3-15.3-15.3h-14.57
			c-8.45,0-15.3,6.85-15.3,15.3v14.57C87.288,523.641,94.138,530.491,102.588,530.491z"/>
		<path d="M117.158,530.991h-14.57c-8.712,0-15.8-7.088-15.8-15.8v-14.57c0-8.712,7.088-15.8,15.8-15.8h14.57
			c8.712,0,15.8,7.088,15.8,15.8v14.57C132.958,523.903,125.871,530.991,117.158,530.991z M102.588,485.821
			c-8.161,0-14.8,6.64-14.8,14.8v14.57c0,8.16,6.639,14.8,14.8,14.8h14.57c8.161,0,14.8-6.64,14.8-14.8v-14.57
			c0-8.16-6.639-14.8-14.8-14.8H102.588z"/>
	</g>
	<g>
		<path d="M490.024,121.862h14.571c8.449,0,15.3-6.85,15.3-15.3v-14.57c0-8.45-6.851-15.3-15.3-15.3h-14.571
			c-8.449,0-15.3,6.85-15.3,15.3v14.57C474.724,115.012,481.575,121.862,490.024,121.862z"/>
		<path d="M504.595,122.362h-14.571c-8.712,0-15.8-7.088-15.8-15.8v-14.57c0-8.712,7.088-15.8,15.8-15.8h14.571
			c8.712,0,15.8,7.088,15.8,15.8v14.57C520.395,115.274,513.307,122.362,504.595,122.362z M490.024,77.191
			c-8.16,0-14.8,6.639-14.8,14.8v14.57c0,8.161,6.64,14.8,14.8,14.8h14.571c8.16,0,14.8-6.639,14.8-14.8v-14.57
			c0-8.161-6.64-14.8-14.8-14.8H490.024z"/>
	</g>
	<g>
		<path d="M490.024,224.019h14.571c8.449,0,15.3-6.85,15.3-15.3v-14.571c0-8.45-6.851-15.3-15.3-15.3h-14.571
			c-8.449,0-15.3,6.85-15.3,15.3v14.571C474.724,217.169,481.575,224.019,490.024,224.019z"/>
		<path d="M504.595,224.519h-14.571c-8.712,0-15.8-7.088-15.8-15.8v-14.571c0-8.712,7.088-15.8,15.8-15.8h14.571
			c8.712,0,15.8,7.088,15.8,15.8v14.571C520.395,217.431,513.307,224.519,504.595,224.519z M490.024,179.349
			c-8.16,0-14.8,6.639-14.8,14.8v14.571c0,8.161,6.64,14.8,14.8,14.8h14.571c8.16,0,14.8-6.639,14.8-14.8v-14.571
			c0-8.161-6.64-14.8-14.8-14.8H490.024z"/>
	</g>
	<g>
		<path d="M490.024,326.177h14.571c8.449,0,15.3-6.851,15.3-15.3v-14.57c0-8.45-6.851-15.3-15.3-15.3h-14.571
			c-8.449,0-15.3,6.85-15.3,15.3v14.57C474.724,319.326,481.575,326.177,490.024,326.177z"/>
		<path d="M504.595,326.677h-14.571c-8.712,0-15.8-7.088-15.8-15.8v-14.57c0-8.712,7.088-15.8,15.8-15.8h14.571
			c8.712,0,15.8,7.088,15.8,15.8v14.57C520.395,319.589,513.307,326.677,504.595,326.677z M490.024,281.507
			c-8.16,0-14.8,6.639-14.8,14.8v14.57c0,8.16,6.64,14.8,14.8,14.8h14.571c8.16,0,14.8-6.64,14.8-14.8v-14.57
			c0-8.161-6.64-14.8-14.8-14.8H490.024z"/>
	</g>
	<g>
		<path d="M490.024,428.333h14.571c8.449,0,15.3-6.85,15.3-15.3v-14.57c0-8.45-6.851-15.3-15.3-15.3h-14.571
			c-8.449,0-15.3,6.85-15.3,15.3v14.57C474.724,421.484,481.575,428.333,490.024,428.333z"/>
		<path d="M504.595,428.833h-14.571c-8.712,0-15.8-7.088-15.8-15.8v-14.57c0-8.712,7.088-15.8,15.8-15.8h14.571
			c8.712,0,15.8,7.088,15.8,15.8v14.57C520.395,421.745,513.307,428.833,504.595,428.833z M490.024,383.663
			c-8.16,0-14.8,6.64-14.8,14.8v14.57c0,8.16,6.64,14.8,14.8,14.8h14.571c8.16,0,14.8-6.64,14.8-14.8v-14.57
			c0-8.16-6.64-14.8-14.8-14.8H490.024z"/>
	</g>
	<g>
		<path d="M490.024,530.491h14.571c8.449,0,15.3-6.851,15.3-15.3v-14.57c0-8.45-6.851-15.3-15.3-15.3h-14.571
			c-8.449,0-15.3,6.85-15.3,15.3v14.57C474.724,523.641,481.575,530.491,490.024,530.491z"/>
		<path d="M504.595,530.991h-14.571c-8.712,0-15.8-7.088-15.8-15.8v-14.57c0-8.712,7.088-15.8,15.8-15.8h14.571
			c8.712,0,15.8,7.088,15.8,15.8v14.57C520.395,523.903,513.307,530.991,504.595,530.991z M490.024,485.821
			c-8.16,0-14.8,6.64-14.8,14.8v14.57c0,8.16,6.64,14.8,14.8,14.8h14.571c8.16,0,14.8-6.64,14.8-14.8v-14.57
			c0-8.16-6.64-14.8-14.8-14.8H490.024z"/>
	</g>
</g>
<g>
</g>
<g>
</g>
<g>
</g>
<g>
</g>
<g>
</g>
<g>
</g>
<g>
</g>
<g>
</g>
<g>
</g>
<g>
</g>
<g>
</g>
<g>
</g>
<g>
</g>
<g>
</g>
<g>
</g>
</svg>
